<svg width="400" height="206" viewBox="0 0 400 206" fill="none" xmlns="http://www.w3.org/2000/svg">
<path d="M198.8 166.217C156.745 166.217 122.624 175.122 122.624 185.966C122.624 196.899 156.745 205.803 198.8 205.803C236.271 205.803 267.482 198.75 273.83 189.493C274.623 188.347 274.976 187.2 274.976 186.054C274.976 175.122 240.856 166.217 198.8 166.217ZM198.8 188.787C174.554 188.787 154.981 185.878 154.981 182.263C154.981 182.263 154.981 182.175 154.981 181.999C154.981 181.91 154.981 181.91 155.069 181.822C155.069 181.822 155.069 181.734 155.158 181.734C156.833 178.384 175.789 175.739 198.8 175.739C221.018 175.739 239.357 178.207 242.178 181.381C242.443 181.646 242.531 181.91 242.531 182.175V182.263C242.619 185.878 222.958 188.787 198.8 188.787Z" fill="#7A97F4"/>
<path d="M107.459 172.477H34.1044C32.2529 172.477 30.4014 173.094 28.9026 174.24L0.689239 196.37C-0.633261 197.428 0.0720767 199.544 1.74724 199.544H79.2457C81.1854 199.544 83.1251 198.75 84.5357 197.428L108.253 174.504C109.046 173.799 108.517 172.477 107.459 172.477Z" fill="#7A97F4"/>
<path d="M398.497 172.477H325.055C323.203 172.477 321.352 173.094 319.853 174.24L291.639 196.37C290.317 197.428 291.022 199.544 292.697 199.544H370.196C372.136 199.544 374.075 198.75 375.486 197.428L399.203 174.504C400.084 173.799 399.555 172.477 398.497 172.477Z" fill="#7A97F4"/>
<path d="M198.8 162.602C156.745 162.602 122.624 171.507 122.624 182.351C122.624 193.284 156.745 202.189 198.8 202.189C236.271 202.189 267.482 195.135 273.83 185.878C274.623 184.732 274.976 183.585 274.976 182.439C274.976 171.507 240.856 162.602 198.8 162.602ZM198.8 185.172C174.554 185.172 154.981 182.263 154.981 178.648C154.981 178.648 154.981 178.56 154.981 178.384C154.981 178.295 154.981 178.295 155.069 178.207C155.069 178.207 155.069 178.119 155.158 178.119C156.833 174.769 175.789 172.124 198.8 172.124C221.018 172.124 239.357 174.592 242.178 177.766C242.443 178.031 242.531 178.295 242.531 178.56V178.648C242.619 182.263 222.958 185.172 198.8 185.172Z" fill="#8257E6"/>
<path d="M273.83 185.878C267.482 195.135 236.359 202.189 198.8 202.189C156.745 202.189 122.624 193.284 122.624 182.351C122.624 182.351 135.849 198.309 196.155 198.309C247.997 198.397 268.893 188.611 273.83 185.878Z" fill="#572EB6"/>
<path d="M242.178 177.767C239.269 174.593 220.93 172.124 198.8 172.124C175.701 172.124 156.833 174.769 155.158 178.119C155.951 176.18 161.241 169.479 198.8 169.479C233.362 169.479 240.679 175.474 242.178 177.767Z" fill="#572EB6"/>
<path d="M108.076 172.477L92.6471 62.0918C92.4708 60.9457 91.5009 60.064 90.2666 60.064H69.4593C68.0486 60.064 66.9024 61.2984 67.0788 62.7972L72.2806 104.5C72.4569 106.175 71.2226 107.586 69.5474 107.586H45.7424C44.2436 107.586 43.0093 106.44 42.9211 104.941L40.9814 62.4445C40.8933 61.122 39.8353 60.1522 38.6009 60.1522H19.1161C17.7054 60.1522 16.6474 61.2984 16.7356 62.6209L19.3806 135.27C19.4688 137.562 21.4084 139.414 23.7008 139.414H76.6889L80.8328 172.653H108.076V172.477Z" fill="#273D7A"/>
<path d="M399.115 172.477L383.685 62.0918C383.509 60.9457 382.539 60.064 381.305 60.064H360.498C359.087 60.064 357.941 61.2984 358.117 62.7972L363.319 104.5C363.495 106.175 362.261 107.586 360.586 107.586H336.781C335.282 107.586 334.048 106.44 333.959 104.941L332.02 62.4445C331.932 61.122 330.874 60.1522 329.639 60.1522H310.243C308.832 60.1522 307.774 61.2984 307.862 62.6209L310.507 135.27C310.595 137.562 312.535 139.414 314.827 139.414H367.815L371.959 172.653H399.115V172.477Z" fill="#273D7A"/>
<path d="M92.0296 63.238L80.3916 195.135C80.2153 197.604 78.0993 199.544 75.6306 199.544H58.1736C55.2641 199.544 53.0599 196.987 53.4126 194.166L60.7304 132.361L8.44759 133.242C5.53809 133.242 3.33391 130.686 3.86291 127.864L4.03925 126.718L16.0299 62.4445C16.3826 60.6812 17.8814 59.3587 19.7329 59.3587H36.3964C38.6888 59.3587 40.4521 61.4747 40.0994 63.767L32.9579 104.324C32.6934 105.999 33.9278 107.409 35.6029 107.409H60.5541L66.3731 62.3563C66.6376 60.593 68.1364 59.2705 69.8998 59.2705H88.5029C90.5308 59.3587 92.2059 61.2102 92.0296 63.238Z" fill="#8257E6"/>
<path d="M61.0834 126.718L60.6425 132.361L8.35969 133.242C5.45019 133.242 3.24602 130.686 3.77502 127.864L3.95136 126.718H61.0834Z" fill="#572EB6"/>
<path d="M92.0298 63.238L80.3918 195.135C80.2155 197.604 78.0995 199.544 75.6308 199.544H72.9858L86.828 59.3587H88.5032C90.531 59.3587 92.2062 61.2102 92.0298 63.238Z" fill="#572EB6"/>
<path d="M32.8701 104.412C32.6056 106.087 33.84 107.498 35.5151 107.498H30.4015C28.55 107.498 27.0511 105.823 27.4038 103.971L35.2506 59.4468H36.3968C38.6891 59.4468 40.4525 61.5628 40.0998 63.8552L32.8701 104.412Z" fill="#572EB6"/>
<path d="M382.98 63.238L371.342 195.135C371.165 197.604 369.049 199.544 366.581 199.544H349.124C346.214 199.544 344.01 196.987 344.363 194.166L351.681 132.361L299.398 133.242C296.488 133.242 294.284 130.686 294.813 127.864L294.989 126.718L306.98 62.4445C307.333 60.6812 308.832 59.3587 310.683 59.3587H327.347C329.639 59.3587 331.402 61.4747 331.05 63.767L323.908 104.324C323.644 105.999 324.878 107.409 326.553 107.409H351.504L357.323 62.3563C357.588 60.593 359.087 59.2705 360.85 59.2705H379.453C381.569 59.3587 383.244 61.2102 382.98 63.238Z" fill="#8257E6"/>
<path d="M352.121 126.718L351.681 132.361L299.398 133.242C296.488 133.242 294.284 130.686 294.813 127.864L294.989 126.718H352.121Z" fill="#572EB6"/>
<path d="M382.98 63.238L371.342 195.135C371.165 197.604 369.049 199.544 366.581 199.544H363.936L377.778 59.3587H379.453C381.569 59.3587 383.244 61.2102 382.98 63.238Z" fill="#572EB6"/>
<path d="M323.908 104.412C323.643 106.087 324.878 107.498 326.553 107.498H321.439C319.588 107.498 318.089 105.823 318.441 103.971L326.288 59.4468H327.434C329.727 59.4468 331.49 61.5628 331.137 63.8552L323.908 104.412Z" fill="#572EB6"/>
<path opacity="0.28" d="M163.974 90.1288L145.9 181.822C144.93 186.759 148.104 191.432 152.424 191.432H248.173C252.405 191.432 255.579 186.936 254.786 182.175L239.974 90.4815C239.357 86.7785 236.623 84.1335 233.361 84.1335H170.587C167.413 84.0453 164.679 86.6022 163.974 90.1288Z" fill="#8257E6"/>
<path d="M245.616 95.8597L254.345 124.866C254.521 125.484 255.138 125.836 255.755 125.572C256.196 125.395 256.549 124.866 256.372 124.337L250.642 94.6253C250.289 93.0383 248.526 92.1567 247.027 92.7738C245.881 93.3028 245.263 94.5372 245.616 95.8597Z" fill="#FEC272"/>
<path d="M229.129 106.351L234.772 128.746C234.86 129.187 235.301 129.363 235.654 129.275C236.006 129.187 236.183 128.834 236.094 128.481L232.48 105.646C232.303 104.588 231.157 103.883 230.099 104.324C229.394 104.676 228.953 105.47 229.129 106.351Z" fill="#FEC272"/>
<path d="M155.598 98.681L148.28 120.987C148.192 121.428 147.663 121.604 147.31 121.428C146.958 121.252 146.781 120.899 146.87 120.546L152.16 97.7112C152.424 96.6532 153.658 96.036 154.628 96.4768C155.51 96.9177 155.863 97.7993 155.598 98.681Z" fill="#FEC272"/>
<path d="M170.146 105.558L160.624 146.996C160.536 147.437 160.095 147.613 159.742 147.525C159.389 147.437 159.213 147.084 159.301 146.732L166.795 104.853C166.972 103.795 168.118 103.089 169.176 103.53C169.969 103.795 170.41 104.676 170.146 105.558Z" fill="#FEC272"/>
<path d="M190.336 110.407L185.751 140.472C185.663 140.913 185.222 141.177 184.869 141.001C184.517 140.913 184.34 140.56 184.34 140.207L186.809 109.878C186.985 108.82 188.043 108.115 189.101 108.467C189.983 108.644 190.512 109.525 190.336 110.407Z" fill="#FEC272"/>
<path d="M213.965 109.79L215.111 157.488C215.111 157.929 214.758 158.193 214.317 158.193C213.965 158.105 213.7 157.841 213.7 157.488L210.438 109.79C210.438 108.644 211.408 107.85 212.466 108.027C213.347 108.203 213.965 108.996 213.965 109.79Z" fill="#FEC272"/>
<path d="M122.359 66.5002C121.39 65.354 120.684 64.2078 120.155 63.0617L118.127 49.484L122.8 53.8041L122.359 66.5002Z" fill="#738DE0"/>
<path d="M253.904 71.0848C253.904 71.0848 250.995 77.1683 244.647 83.9572C236.712 92.4212 223.31 102.031 203.385 102.031C189.366 102.031 178.963 97.3585 171.557 91.7158C159.919 82.8992 155.334 71.6138 155.334 71.6138L253.904 71.0848Z" fill="#273D7A"/>
<path d="M253.904 71.0848C253.904 71.0848 250.995 77.1683 244.647 83.9572C237.858 86.6022 229.482 88.8063 219.078 90.217C198.624 92.9502 182.666 92.7738 171.557 91.7158C159.919 82.8992 155.334 71.6138 155.334 71.6138L253.904 71.0848Z" fill="#072359"/>
<path d="M284.939 48.955C284.939 48.955 284.41 54.5095 282.646 61.3865C282.382 62.3563 281.941 63.5025 281.236 64.5605C279.384 67.5582 275.858 70.8203 270.127 73.9062C269.157 74.4352 268.011 74.9642 266.865 75.4932C265.983 75.934 265.101 76.2867 264.131 76.7275C262.809 77.2565 261.486 77.7855 260.076 78.3145C255.138 80.0778 249.319 81.5767 242.442 82.9874C241.913 83.0755 241.473 83.1637 240.944 83.2518C239.621 83.5163 238.034 83.6927 236.359 83.869C229.306 84.6625 219.96 85.1915 209.997 85.3678C208.146 85.3678 206.294 85.456 204.443 85.456C195.009 85.5442 185.487 85.2797 177.199 84.8389C175.436 84.7507 173.672 84.6625 172.085 84.4862C167.236 84.1335 163.004 83.6045 159.918 82.9874C155.422 82.1057 151.366 81.1358 147.751 80.0778C146.253 79.637 144.842 79.1962 143.431 78.7553C132.499 75.1405 125.886 70.7322 122.448 66.6765C121.919 66.0593 121.478 65.5303 121.125 64.9132C120.772 64.3842 120.42 63.767 120.243 63.238C119.979 62.6208 119.714 62.0918 119.626 61.4747C118.833 58.2125 118.216 54.8622 117.951 52.3053C117.598 49.3958 117.51 47.4562 117.51 47.4562L201.269 53.716L285.027 49.0432L284.939 48.955Z" fill="#99ADF9"/>
<path d="M284.851 48.7787C284.851 49.3958 284.41 50.1893 283.616 51.1592C281.412 53.716 276.122 57.5072 267.129 60.9457C265.983 61.3865 264.749 61.8273 263.426 62.2682C262.809 62.4445 262.192 62.709 261.575 62.8853C260.252 63.3262 258.842 63.767 257.343 64.1196C252.317 65.5303 246.498 66.8528 239.797 67.8226C238.21 68.0871 236.535 68.3517 234.772 68.528C227.366 69.4978 219.078 70.115 209.821 70.2913C208.057 70.2913 206.206 70.3795 204.354 70.3795H204.266C194.832 70.3795 186.104 69.9386 178.257 69.2333C176.494 69.057 174.73 68.8806 173.055 68.7043C164.415 67.7345 156.744 66.3238 150.132 64.7368C148.633 64.3841 147.134 63.9433 145.724 63.5907C132.587 59.9758 123.946 55.4793 119.979 51.7763C119.185 51.071 118.568 50.2775 118.127 49.6603C117.598 48.8668 117.334 48.1615 117.334 47.4562C117.334 41.1963 142.021 27.8832 204.707 27.8832C267.394 27.795 284.851 44.4585 284.851 48.7787Z" fill="#273D7A"/>
<path d="M168.559 35.0246L122.712 53.8041C120.949 52.658 118.48 50.1893 118.039 49.484L167.06 34.2311L168.559 35.0246Z" fill="#072359"/>
<path d="M284.85 48.8668C284.85 49.3958 284.41 50.1893 283.616 51.1591L236.535 35.0246L238.034 34.3193L284.85 48.8668Z" fill="#072359"/>
<path d="M176.317 39.8738L150.132 64.6486C148.633 64.296 147.134 63.8551 145.724 63.5025L174.73 39.7856L176.317 39.8738Z" fill="#072359"/>
<path d="M190.689 42.7833L178.257 69.2333C176.494 69.057 174.73 68.8806 173.055 68.7043L189.101 42.6951L190.689 42.7833Z" fill="#072359"/>
<path d="M239.886 67.9108C238.299 68.1753 236.536 68.4398 234.86 68.6161L222.693 42.7833L224.369 42.6951L239.886 67.9108Z" fill="#072359"/>
<path d="M209.821 70.3795C208.057 70.3795 206.206 70.4676 204.354 70.4676H204.266L206.382 44.4585L208.057 44.3703L209.821 70.3795Z" fill="#072359"/>
<path d="M267.041 60.9456C265.895 61.3865 264.66 61.8273 263.338 62.2681L231.686 39.8738L233.361 39.7856L267.041 60.9456Z" fill="#072359"/>
<path d="M209.909 85.1915C208.057 85.1915 206.206 85.2797 204.354 85.2797V70.3795L209.821 70.2913L209.909 85.1915Z" fill="#738DE0"/>
<path d="M240.767 83.0755C239.357 83.34 237.858 83.5163 236.183 83.6926L234.772 68.528L239.797 67.8226L240.767 83.0755Z" fill="#738DE0"/>
<path d="M270.039 73.818C269.069 74.347 267.923 74.876 266.777 75.405L263.426 62.18L267.041 60.9456L270.039 73.818Z" fill="#738DE0"/>
<path d="M178.257 69.2333L177.199 84.6625C175.436 84.5743 173.672 84.4862 172.085 84.3098L173.143 68.7043L178.257 69.2333Z" fill="#738DE0"/>
<path d="M150.132 64.6486L147.663 79.9015C146.165 79.4607 144.754 79.0198 143.343 78.579L145.636 63.5025L150.132 64.6486Z" fill="#738DE0"/>
<path d="M122.8 53.9805L121.037 64.825C120.684 64.296 120.331 63.6788 120.155 63.1498C119.891 62.5327 119.626 62.0037 119.538 61.3865C118.744 58.1243 118.127 54.774 117.863 52.2171L118.127 49.5721C118.127 49.5721 119.626 51.3355 120.243 51.9526C120.772 52.4816 122.8 53.9805 122.8 53.9805Z" fill="#738DE0"/>
<path d="M200.563 54.9503C226.517 54.9503 247.556 48.9898 247.556 41.6371C247.556 34.2845 226.517 28.324 200.563 28.324C174.61 28.324 153.57 34.2845 153.57 41.6371C153.57 48.9898 174.61 54.9503 200.563 54.9503Z" fill="#072359"/>
<path d="M243.5 39.5212C243.5 39.5212 240.062 43.4005 231.598 46.7508C225.338 49.2195 216.345 51.3355 204.002 51.3355C197.213 51.3355 191.306 50.7183 186.368 49.7485C169.881 46.5745 162.74 39.6975 162.74 39.6975C162.74 39.6975 166.355 12.8948 188.925 3.81365C193.51 1.96215 198.976 0.815979 205.324 0.815979C236.359 0.815979 243.5 39.5212 243.5 39.5212Z" fill="#99ADF9"/>
<path d="M186.368 49.7485C169.881 46.5745 162.74 39.6975 162.74 39.6975C162.74 39.6975 166.355 12.8948 188.925 3.81366C184.517 7.51666 180.197 14.9227 179.491 27.0015C178.786 35.9945 180.902 43.4887 186.368 49.7485Z" fill="#7A97F4"/>
<path d="M243.501 39.5211C243.501 39.5211 240.062 43.4005 231.598 46.7508C230.276 41.8135 228.248 37.4051 228.248 37.4051C228.248 37.4051 219.96 39.1685 216.257 31.3216C212.554 23.4748 221.459 17.8321 221.459 17.8321C221.459 17.8321 219.343 11.0433 208.41 6.63498C197.478 2.22665 188.749 3.81365 188.749 3.81365C193.334 1.96215 198.8 0.815979 205.148 0.815979C236.359 0.815979 243.501 39.5211 243.501 39.5211Z" fill="#C2D1FF"/>
<path d="M207.969 22.9458C209.284 22.9458 210.35 21.9195 210.35 20.6535C210.35 19.3875 209.284 18.3611 207.969 18.3611C206.655 18.3611 205.589 19.3875 205.589 20.6535C205.589 21.9195 206.655 22.9458 207.969 22.9458Z" fill="#C2D1FF"/>
<path d="M199.682 25.15C200.704 25.15 201.533 24.3605 201.533 23.3867C201.533 22.4128 200.704 21.6233 199.682 21.6233C198.659 21.6233 197.83 22.4128 197.83 23.3867C197.83 24.3605 198.659 25.15 199.682 25.15Z" fill="#C2D1FF"/>
<path d="M205.236 37.0525C207.232 37.0525 208.851 35.4735 208.851 33.5258C208.851 31.5781 207.232 29.9991 205.236 29.9991C203.24 29.9991 201.621 31.5781 201.621 33.5258C201.621 35.4735 203.24 37.0525 205.236 37.0525Z" fill="#C2D1FF"/>
</svg>
